# xmcd
#
# Track frame offsets:
#	150
#	20687
#	42875
#	64895
#	83439
#	102878
#	123371
#	142119
#	157290
#	176717
#	198304
#	218467
#	236279
#	257916
#	280622
#	302196
#	319599
#
# Disc length: 4539 seconds
#
# Revision: 0
# Processed by: cddbd v1.5.2PL0 Copyright (c) Steve Scherf et al.
# Submitted via: audiograbber 1.83.01
#
DISCID=ec11b911
DTITLE=Whitney Houston - Love collection
DYEAR=1900
DGENRE=Love collection
TTITLE0=When you belive
TTITLE1=It's not right, but it's okay
TTITLE2=Heartbreak hotel
TTITLE3=My heart is calling
TTITLE4=Count on me
TTITLE5=Why does it hurt so bad
TTITLE6=Step by step
TTITLE7=Exhale (Shoop Shoop)
TTITLE8=So emotional
TTITLE9=I'm every woman
TTITLE10=I will always love you
TTITLE11=I belive in you and me
TTITLE12=Something in common
TTITLE13=Didn't we almost have it all
TTITLE14=I have nothing
TTITLE15=All the man I need
TTITLE16=One moment in time
EXTD=
EXTT0=
EXTT1=
EXTT2=
EXTT3=
EXTT4=
EXTT5=
EXTT6=
EXTT7=
EXTT8=
EXTT9=
EXTT10=
EXTT11=
EXTT12=
EXTT13=
EXTT14=
EXTT15=
EXTT16=
PLAYORDER=
